HIERARCHY
ROOT newVegas:Hips
{
	OFFSET 0.000000 96.479958 0.000000
	CHANNELS 6 Xposition Yposition Zposition Xrotation Yrotation Zrotation
	JOINT newVegas:Pelvis
	{
		OFFSET 0.000000 0.000000 0.000000
		CHANNELS 3 Xrotation Yrotation Zrotation
		JOINT newVegas:LeftUpLeg
		{
			OFFSET 18.735201 -5.666702 -4.541200
			CHANNELS 3 Xrotation Yrotation Zrotation
			JOINT newVegas:LeftLeg
			{
				OFFSET -0.021200 -31.938179 0.493100
				CHANNELS 3 Xrotation Yrotation Zrotation
				JOINT newVegas:LeftFoot
				{
					OFFSET 0.021200 -31.938179 -4.336299
					CHANNELS 3 Xrotation Yrotation Zrotation
					JOINT newVegas:LeftToeBase
					{
						OFFSET 0.943001 -26.722000 15.023500
						CHANNELS 3 Xrotation Yrotation Zrotation
						End Site
						{
							OFFSET 0.000000 30.670183 0.000000
						}
					}
				}
				JOINT newVegas:Left_PantLeg
				{
					OFFSET 0.663870 -9.044666 -1.108900
					CHANNELS 3 Xrotation Yrotation Zrotation
					End Site
					{
						OFFSET 1.415995 20.635357 0.000000
					}
				}
			}
		}
		JOINT newVegas:RightUpLeg
		{
			OFFSET -18.735201 -5.666702 -4.541200
			CHANNELS 3 Xrotation Yrotation Zrotation
			JOINT newVegas:RightLeg
			{
				OFFSET 0.018946 -31.938133 0.493100
				CHANNELS 3 Xrotation Yrotation Zrotation
				JOINT newVegas:RightFoot
				{
					OFFSET -0.018946 -31.938126 -4.336299
					CHANNELS 3 Xrotation Yrotation Zrotation
					JOINT newVegas:RightToeBase
					{
						OFFSET -0.943001 -26.722004 15.023500
						CHANNELS 3 Xrotation Yrotation Zrotation
						End Site
						{
							OFFSET 0.000000 30.670187 0.000000
						}
					}
				}
				JOINT newVegas:Right_PantLeg
				{
					OFFSET -0.661674 -9.044716 -1.108900
					CHANNELS 3 Xrotation Yrotation Zrotation
					End Site
					{
						OFFSET -1.415958 20.635269 0.000000
					}
				}
			}
		}
	}
	JOINT newVegas:Spine
	{
		OFFSET 0.000000 10.199997 -0.299500
		CHANNELS 3 Xrotation Yrotation Zrotation
		JOINT newVegas:Spine1
		{
			OFFSET 0.000000 11.900002 -1.516600
			CHANNELS 3 Xrotation Yrotation Zrotation
			JOINT newVegas:Spine2
			{
				OFFSET 0.000000 13.600006 -2.842500
				CHANNELS 3 Xrotation Yrotation Zrotation
				JOINT newVegas:Neck
				{
					OFFSET 0.000000 9.624100 -2.890100
					CHANNELS 3 Xrotation Yrotation Zrotation
					JOINT newVegas:Head
					{
						OFFSET 0.000000 14.068802 -1.351900
						CHANNELS 3 Xrotation Yrotation Zrotation
						JOINT newVegas:Hair_Back
						{
							OFFSET 0.000000 3.231903 -17.524799
							CHANNELS 3 Xrotation Yrotation Zrotation
							End Site
							{
								OFFSET 0.000000 19.849884 0.000000
							}
						}
						JOINT newVegas:Hair_Front
						{
							OFFSET 0.000000 31.260406 4.573800
							CHANNELS 3 Xrotation Yrotation Zrotation
							JOINT newVegas:Hair_Front1
							{
								OFFSET 0.000000 2.284103 11.993300
								CHANNELS 3 Xrotation Yrotation Zrotation
								JOINT newVegas:Hair_Front2
								{
									OFFSET 0.000000 2.284103 11.993300
									CHANNELS 3 Xrotation Yrotation Zrotation
									End Site
									{
										OFFSET 0.000000 12.208862 0.000000
									}
								}
							}
						}
						JOINT newVegas:Jowel
						{
							OFFSET 0.000000 -7.458206 6.864100
							CHANNELS 3 Xrotation Yrotation Zrotation
							End Site
							{
								OFFSET 0.000000 19.849884 0.000000
							}
						}
					}
				}
				JOINT newVegas:LeftShoulder
				{
					OFFSET 15.263000 10.923401 -0.547700
					CHANNELS 3 Xrotation Yrotation Zrotation
					JOINT newVegas:LeftArm
					{
						OFFSET 25.438599 -2.830597 -13.032500
						CHANNELS 3 Xrotation Yrotation Zrotation
						JOINT newVegas:LeftForeArm
						{
							OFFSET 29.960503 0.000000 0.000000
							CHANNELS 3 Xrotation Yrotation Zrotation
							JOINT newVegas:LeftHand
							{
								OFFSET 27.849251 0.000000 0.000000
								CHANNELS 3 Xrotation Yrotation Zrotation
								JOINT newVegas:LeftHandThumb1
								{
									OFFSET 4.487587 -3.305161 6.305391
									CHANNELS 3 Xrotation Yrotation Zrotation
									JOINT newVegas:LeftHandThumb2
									{
										OFFSET 5.480453 -3.164139 3.164143
										CHANNELS 3 Xrotation Yrotation Zrotation
										JOINT newVegas:LeftHandThumb3
										{
											OFFSET 5.159721 -2.978973 2.978967
											CHANNELS 3 Xrotation Yrotation Zrotation
											End Site
											{
												OFFSET 2.494507 5.926697 1.738678
											}
										}
									}
								}
								JOINT newVegas:LeftHandIndex1
								{
									OFFSET 18.578728 -0.527832 5.208049
									CHANNELS 3 Xrotation Yrotation Zrotation
									JOINT newVegas:LeftHandIndex2
									{
										OFFSET 3.192009 0.000000 0.000000
										CHANNELS 3 Xrotation Yrotation Zrotation
										JOINT newVegas:LeftHandIndex3
										{
											OFFSET 3.835129 0.000000 0.000000
											CHANNELS 3 Xrotation Yrotation Zrotation
											End Site
											{
												OFFSET -0.034599 3.816971 0.371180
											}
										}
									}
								}
								JOINT newVegas:LeftHandMiddle1
								{
									OFFSET 18.476105 0.000000 0.000000
									CHANNELS 3 Xrotation Yrotation Zrotation
									JOINT newVegas:LeftHandMiddle2
									{
										OFFSET 3.324875 0.000000 0.000000
										CHANNELS 3 Xrotation Yrotation Zrotation
										JOINT newVegas:LeftHandMiddle3
										{
											OFFSET 4.596550 0.000000 0.000000
											CHANNELS 3 Xrotation Yrotation Zrotation
											End Site
											{
												OFFSET 0.057701 4.578827 0.399218
											}
										}
									}
								}
								JOINT newVegas:LeftHandRing1
								{
									OFFSET 17.732719 0.121887 -4.201567
									CHANNELS 3 Xrotation Yrotation Zrotation
									JOINT newVegas:LeftHandRing2
									{
										OFFSET 2.733170 0.000000 0.000000
										CHANNELS 3 Xrotation Yrotation Zrotation
										JOINT newVegas:LeftHandRing3
										{
											OFFSET 3.178268 0.000000 0.000000
											CHANNELS 3 Xrotation Yrotation Zrotation
											End Site
											{
												OFFSET 0.119102 3.170624 0.185394
											}
										}
									}
								}
								JOINT newVegas:LeftHandPinky1
								{
									OFFSET 15.989624 -0.606689 -7.535461
									CHANNELS 3 Xrotation Yrotation Zrotation
									JOINT newVegas:LeftHandPinky2
									{
										OFFSET 2.538986 0.000000 0.000000
										CHANNELS 3 Xrotation Yrotation Zrotation
										JOINT newVegas:LeftHandPinky3
										{
											OFFSET 2.593102 0.000000 0.000000
											CHANNELS 3 Xrotation Yrotation Zrotation
											End Site
											{
												OFFSET -0.150902 2.584198 0.152708
											}
										}
									}
								}
							}
							JOINT newVegas:Left_Sleeve
							{
								OFFSET 0.267448 -0.649796 0.577675
								CHANNELS 3 Xrotation Yrotation Zrotation
								End Site
								{
									OFFSET 0.000000 15.991241 0.000000
								}
							}
							JOINT newVegas:Left_CapeC
							{
								OFFSET 15.715958 -8.608795 -6.935905
								CHANNELS 3 Xrotation Yrotation Zrotation
								JOINT newVegas:Left_CapeC1
								{
									OFFSET 0.000000 -8.688499 0.000000
									CHANNELS 3 Xrotation Yrotation Zrotation
									End Site
									{
										OFFSET 0.000000 8.688499 0.000000
									}
								}
							}
						}
						JOINT newVegas:Left_CapeB
						{
							OFFSET 26.118385 -8.608795 -7.079235
							CHANNELS 3 Xrotation Yrotation Zrotation
							JOINT newVegas:Left_CapeB1
							{
								OFFSET 0.000000 -8.688499 0.000000
								CHANNELS 3 Xrotation Yrotation Zrotation
								End Site
								{
									OFFSET 0.000000 8.688499 0.000000
								}
							}
						}
						JOINT newVegas:Left_CapeA
						{
							OFFSET 5.115639 -8.608795 -10.395809
							CHANNELS 3 Xrotation Yrotation Zrotation
							JOINT newVegas:Left_CapeA1
							{
								OFFSET 0.000000 -8.688499 0.000000
								CHANNELS 3 Xrotation Yrotation Zrotation
								End Site
								{
									OFFSET 0.000000 8.688499 0.000000
								}
							}
						}
					}
				}
				JOINT newVegas:RightShoulder
				{
					OFFSET -15.263000 10.923401 -0.547700
					CHANNELS 3 Xrotation Yrotation Zrotation
					JOINT newVegas:RightArm
					{
						OFFSET -25.438599 -2.830597 -13.032500
						CHANNELS 3 Xrotation Yrotation Zrotation
						JOINT newVegas:RightForeArm
						{
							OFFSET -29.960503 0.000000 0.000000
							CHANNELS 3 Xrotation Yrotation Zrotation
							JOINT newVegas:RightHand
							{
								OFFSET -27.849251 0.000000 0.000000
								CHANNELS 3 Xrotation Yrotation Zrotation
								JOINT newVegas:RightHandThumb1
								{
									OFFSET -4.487587 -3.305161 6.305391
									CHANNELS 3 Xrotation Yrotation Zrotation
									JOINT newVegas:RightHandThumb2
									{
										OFFSET -5.480453 -3.164139 3.164143
										CHANNELS 3 Xrotation Yrotation Zrotation
										JOINT newVegas:RightHandThumb3
										{
											OFFSET -5.159721 -2.978973 2.978967
											CHANNELS 3 Xrotation Yrotation Zrotation
											End Site
											{
												OFFSET -2.494507 5.926697 1.738678
											}
										}
									}
								}
								JOINT newVegas:RightHandIndex1
								{
									OFFSET -18.578728 -0.527832 5.208049
									CHANNELS 3 Xrotation Yrotation Zrotation
									JOINT newVegas:RightHandIndex2
									{
										OFFSET -3.192009 0.000000 0.000000
										CHANNELS 3 Xrotation Yrotation Zrotation
										JOINT newVegas:RightHandIndex3
										{
											OFFSET -3.835129 0.000000 0.000000
											CHANNELS 3 Xrotation Yrotation Zrotation
											End Site
											{
												OFFSET 0.034599 3.816971 0.371180
											}
										}
									}
								}
								JOINT newVegas:RightHandMiddle1
								{
									OFFSET -18.476105 0.000000 0.000000
									CHANNELS 3 Xrotation Yrotation Zrotation
									JOINT newVegas:RightHandMiddle2
									{
										OFFSET -3.324875 0.000000 0.000000
										CHANNELS 3 Xrotation Yrotation Zrotation
										JOINT newVegas:RightHandMiddle3
										{
											OFFSET -4.596550 0.000000 0.000000
											CHANNELS 3 Xrotation Yrotation Zrotation
											End Site
											{
												OFFSET -0.057701 4.578827 0.399218
											}
										}
									}
								}
								JOINT newVegas:RightHandRing1
								{
									OFFSET -17.732719 0.121887 -4.201567
									CHANNELS 3 Xrotation Yrotation Zrotation
									JOINT newVegas:RightHandRing2
									{
										OFFSET -2.733170 0.000000 0.000000
										CHANNELS 3 Xrotation Yrotation Zrotation
										JOINT newVegas:RightHandRing3
										{
											OFFSET -3.178268 0.000000 0.000000
											CHANNELS 3 Xrotation Yrotation Zrotation
											End Site
											{
												OFFSET -0.119102 3.170624 0.185394
											}
										}
									}
								}
								JOINT newVegas:RightHandPinky1
								{
									OFFSET -15.989624 -0.606689 -7.535461
									CHANNELS 3 Xrotation Yrotation Zrotation
									JOINT newVegas:RightHandPinky2
									{
										OFFSET -2.538986 0.000000 0.000000
										CHANNELS 3 Xrotation Yrotation Zrotation
										JOINT newVegas:RightHandPinky3
										{
											OFFSET -2.593102 0.000000 0.000000
											CHANNELS 3 Xrotation Yrotation Zrotation
											End Site
											{
												OFFSET 0.150902 2.584198 0.152708
											}
										}
									}
								}
							}
							JOINT newVegas:Right_CapeC
							{
								OFFSET -15.715958 -8.608795 -6.935905
								CHANNELS 3 Xrotation Yrotation Zrotation
								JOINT newVegas:Right_CapeC1
								{
									OFFSET 0.000000 -8.688499 0.000000
									CHANNELS 3 Xrotation Yrotation Zrotation
									End Site
									{
										OFFSET 0.000000 8.688499 0.000000
									}
								}
							}
							JOINT newVegas:Right_Sleeve
							{
								OFFSET -0.267448 -0.649994 0.577675
								CHANNELS 3 Xrotation Yrotation Zrotation
								End Site
								{
									OFFSET 0.000000 15.991302 0.000000
								}
							}
						}
						JOINT newVegas:Right_CapeA
						{
							OFFSET -5.115540 -8.608795 -10.395824
							CHANNELS 3 Xrotation Yrotation Zrotation
							JOINT newVegas:Right_CapeA1
							{
								OFFSET 0.000000 -8.688499 0.000000
								CHANNELS 3 Xrotation Yrotation Zrotation
								End Site
								{
									OFFSET 0.000000 8.688499 0.000000
								}
							}
						}
						JOINT newVegas:Right_CapeB
						{
							OFFSET -26.118187 -8.608795 -7.079266
							CHANNELS 3 Xrotation Yrotation Zrotation
							JOINT newVegas:Right_CapeB1
							{
								OFFSET 0.000000 -8.688499 0.000000
								CHANNELS 3 Xrotation Yrotation Zrotation
								End Site
								{
									OFFSET 0.000000 8.688499 0.000000
								}
							}
						}
					}
				}
				JOINT newVegas:Left_Collar
				{
					OFFSET 18.625099 8.655502 8.828100
					CHANNELS 3 Xrotation Yrotation Zrotation
					JOINT newVegas:Left_Collar1
					{
						OFFSET 14.783401 10.540405 -1.259500
						CHANNELS 3 Xrotation Yrotation Zrotation
						End Site
						{
							OFFSET 0.000000 18.199875 0.000000
						}
					}
				}
				JOINT newVegas:Collar_Back
				{
					OFFSET 0.000000 15.630707 -20.132601
					CHANNELS 3 Xrotation Yrotation Zrotation
					End Site
					{
						OFFSET 0.000000 22.523010 0.000000
					}
				}
				JOINT newVegas:Left_Peck
				{
					OFFSET 17.239599 -5.132599 25.482599
					CHANNELS 3 Xrotation Yrotation Zrotation
					End Site
					{
						OFFSET 0.000000 22.523010 0.000000
					}
				}
				JOINT newVegas:Right_Peck
				{
					OFFSET -17.239599 -5.132202 25.482599
					CHANNELS 3 Xrotation Yrotation Zrotation
					End Site
					{
						OFFSET 0.000000 22.523010 0.000000
					}
				}
				JOINT newVegas:Right_Collar
				{
					OFFSET -18.625099 8.655792 8.828100
					CHANNELS 3 Xrotation Yrotation Zrotation
					JOINT newVegas:Right_Collar1
					{
						OFFSET -14.783401 10.539993 -1.259500
						CHANNELS 3 Xrotation Yrotation Zrotation
						End Site
						{
							OFFSET 0.000000 18.199631 0.000000
						}
					}
				}
			}
		}
		JOINT newVegas:Belly
		{
			OFFSET 0.000000 -6.540398 9.014299
			CHANNELS 3 Xrotation Yrotation Zrotation
			End Site
			{
				OFFSET 0.000000 11.566666 0.000000
			}
		}
	}
	JOINT newVegas:ElvisFacialAnim_Joint
	{
		OFFSET 1.000000 -95.330101 -8.825800
		CHANNELS 3 Xrotation Yrotation Zrotation
		End Site
		{
			OFFSET 0.000000 35.315800 0.000000
		}
	}
}
MOTION
Frames: 4
Frame Time: 0.016667
-17.825031 78.771011 1.179318 -6.217037 -41.586594 1.723848 0.000000 0.000000 -0.000001 -28.901836 2.603294 27.997716 51.806445 -10.947559 9.518388 -16.530441 -9.903819 -32.771422 0.000000 -0.000001 -0.000000 -0.000000 -0.000001 0.000001 -29.212053 -3.091318 -41.200784 66.233328 -5.447426 -8.219439 -21.468685 -9.259889 31.398363 0.000000 -0.000000 -0.000000 -0.000002 0.000002 0.000003 9.576871 6.344698 -1.039088 2.766067 -0.356992 -2.318341 2.765117 -0.254301 -2.356228 3.449611 3.567063 -0.576848 3.449615 3.567063 -0.576860 -0.000001 -0.000001 -0.000000 3.449886 3.567123 -0.576917 3.449597 3.567085 -0.576888 -0.000002 0.000000 0.000000 -0.000001 -0.000001 0.000001 2.217711 0.696463 -13.443602 -68.029736 -0.403277 -40.075718 0.000372 -108.716790 0.000365 0.135986 -4.421012 -12.826701 -6.141211 -11.690803 -6.761684 9.914098 42.595525 3.409863 -0.000000 -0.000001 -0.000001 0.255306 3.378220 -45.814331 5.654098 5.847758 -88.067476 0.000000 -0.000001 0.000001 -0.461475 3.841584 -39.722676 6.450746 5.820337 -95.892864 -0.000005 0.000001 -0.000001 0.469724 4.966810 -39.799444 8.181032 5.368605 -113.502998 -0.000002 -0.000001 -0.000000 -3.762424 9.063715 -45.253821 5.342510 5.828976 -85.005304 0.000001 0.000000 -0.000001 0.000001 0.000000 -0.000000 0.000001 0.000000 -0.000000 0.000001 0.000001 -0.000000 0.000002 0.000004 0.000001 0.000002 0.000003 0.000000 0.000002 0.000004 0.000001 0.000002 0.000004 0.000001 2.599453 11.718729 -12.158731 -64.262907 18.736198 84.603142 0.000005 87.058192 -0.000017 -17.320385 37.211929 21.718770 -7.341098 13.749655 7.412330 9.855736 -44.489093 -3.903278 0.000000 -0.000000 -0.000001 -0.124373 -2.384790 45.108864 4.500585 -4.654545 88.071137 -0.000001 0.000001 -0.000001 -0.761621 -2.932898 39.031051 5.133871 -4.632748 95.881642 0.000000 0.000001 0.000000 0.154763 -4.068805 39.122661 6.509737 -4.273581 113.462891 0.000001 -0.000001 -0.000001 -4.198871 -8.025531 44.637766 4.252905 -4.639613 85.014818 -0.000001 -0.000000 -0.000000 -0.000002 0.000004 -0.000002 0.000000 0.000003 -0.000003 -0.000002 0.000004 -0.000001 -0.000001 -0.000003 -0.000001 -0.000001 -0.000002 0.000002 -0.000001 -0.000003 -0.000001 -0.000001 -0.000002 0.000002 0.000000 0.000001 0.000000 0.000000 0.000001 0.000000 0.000000 0.000001 0.000000 0.000000 0.000001 0.000000 0.000000 0.000001 0.000000 0.000000 0.000001 0.000000 0.000000 0.000001 0.000000 -0.000000 -0.000001 0.000000 0.000000 0.000000 -0.000001 
-18.563971 79.211731 0.912615 -6.554274 -41.751734 1.631706 -0.000000 0.000001 0.000000 -28.935342 2.220968 27.942108 50.776217 -11.528961 9.704969 -11.983376 -9.947429 -33.168638 -0.000000 0.000000 -0.000000 -0.000001 0.000003 0.000001 -28.823040 -3.764133 -41.039239 65.998458 -5.501942 -7.972409 -22.094376 -8.924997 30.710313 -0.000000 -0.000000 -0.000000 0.000003 0.000002 0.000005 9.565374 6.195862 -0.942625 2.786419 -0.645102 -2.360987 2.784641 -0.532868 -2.409949 3.466125 3.589683 -0.566412 3.466174 3.589683 -0.566436 0.000000 0.000002 -0.000001 3.466484 3.589644 -0.566464 3.465832 3.589909 -0.566473 -0.000001 -0.000001 0.000001 0.000000 0.000002 -0.000001 2.119631 1.326083 -13.029245 -67.198823 -0.218712 -41.239180 -0.000003 -108.751317 0.000011 0.302970 -4.918422 -12.653547 -6.141213 -11.690805 -6.761680 9.914097 42.595525 3.409853 0.000001 0.000000 -0.000004 0.255306 3.378220 -45.814334 5.654097 5.847761 -88.067476 0.000002 -0.000001 0.000000 -0.461475 3.841586 -39.722676 6.450744 5.820334 -95.892864 -0.000001 0.000000 -0.000001 0.469724 4.966807 -39.799444 8.181038 5.368603 -113.502998 -0.000000 0.000001 0.000001 -3.762432 9.063717 -45.253814 5.342503 5.828976 -85.005304 -0.000002 0.000002 0.000002 0.000001 -0.000001 0.000001 0.000001 -0.000001 0.000001 0.000001 -0.000000 0.000002 0.000000 0.000000 -0.000002 0.000000 -0.000001 -0.000002 0.000000 0.000000 -0.000002 0.000000 0.000000 -0.000002 2.565277 11.280101 -12.138845 -64.922089 18.398004 84.997913 0.001688 87.809042 -0.001720 -17.630028 37.319727 21.737782 -7.341095 13.749657 7.412330 9.855734 -44.489089 -3.903263 -0.000000 -0.000003 -0.000001 -0.124373 -2.384790 45.108857 4.500585 -4.654546 88.071137 -0.000000 0.000001 0.000001 -0.761623 -2.932899 39.031048 5.133871 -4.632749 95.881635 0.000000 -0.000001 0.000001 0.154762 -4.068802 39.122661 6.509735 -4.273581 113.462884 0.000002 0.000002 0.000000 -4.198871 -8.025533 44.637772 4.252907 -4.639607 85.014818 -0.000001 -0.000004 0.000001 0.000001 0.000000 0.000001 0.000001 -0.000000 -0.000002 0.000001 0.000000 0.000001 0.000002 -0.000001 -0.000002 0.000002 0.000000 -0.000002 0.000002 -0.000001 -0.000002 0.000002 -0.000000 -0.000002 0.000001 -0.000001 0.000000 0.000001 -0.000001 0.000000 0.000001 -0.000001 0.000000 0.000001 -0.000001 0.000000 0.000001 -0.000001 0.000000 0.000001 -0.000001 0.000000 0.000001 -0.000001 0.000000 -0.000000 0.000001 -0.000000 -0.000000 0.000001 0.000000 
-19.309898 79.713081 0.655410 -6.727050 -41.915105 1.648002 -0.000000 0.000000 -0.000000 -29.335522 1.861747 27.518593 50.681619 -11.725362 9.793827 -8.206885 -9.823242 -32.130897 0.000002 0.000001 -0.000001 -0.000002 0.000001 -0.000000 -28.418611 -4.463295 -40.730672 65.559414 -5.593224 -7.775031 -22.616397 -8.690847 30.017431 0.000000 0.000001 0.000000 0.000002 0.000002 0.000002 9.545364 6.070120 -0.897202 2.771247 -0.888563 -2.411322 2.769533 -0.770335 -2.469700 3.456078 3.607106 -0.545142 3.456091 3.607095 -0.545144 0.000000 0.000000 -0.000001 3.456010 3.607146 -0.545149 3.456227 3.607069 -0.545145 0.000000 -0.000001 0.000001 0.000000 0.000000 -0.000000 2.040250 1.891032 -12.727012 -66.041885 -0.227477 -42.512723 -0.000196 -108.614652 -0.000179 0.616242 -5.150686 -12.859878 -6.141213 -11.690805 -6.761682 9.914102 42.595525 3.409863 -0.000000 -0.000001 -0.000001 0.255308 3.378219 -45.814334 5.654097 5.847758 -88.067476 0.000001 0.000001 -0.000002 -0.461476 3.841583 -39.722676 6.450744 5.820338 -95.892864 0.000001 0.000001 0.000000 0.469724 4.966805 -39.799444 8.181034 5.368602 -113.502998 -0.000003 -0.000001 -0.000000 -3.762428 9.063712 -45.253818 5.342509 5.828977 -85.005311 -0.000001 -0.000002 -0.000000 -0.000000 0.000001 -0.000001 -0.000000 0.000001 -0.000001 -0.000000 0.000002 -0.000001 0.000000 -0.000002 0.000001 0.000000 -0.000002 0.000000 0.000000 -0.000002 0.000001 0.000000 -0.000002 0.000001 2.522554 10.738736 -12.141176 -65.351270 18.105126 85.470016 0.001390 88.672671 -0.001179 -17.925712 37.372104 21.709953 -7.341097 13.749662 7.412330 9.855734 -44.489096 -3.903281 -0.000002 0.000003 -0.000000 -0.124372 -2.384790 45.108868 4.500584 -4.654546 88.071137 0.000000 0.000000 -0.000001 -0.761621 -2.932899 39.031055 5.133870 -4.632747 95.881635 0.000000 0.000000 0.000001 0.154764 -4.068802 39.122668 6.509736 -4.273582 113.462884 -0.000000 -0.000001 -0.000001 -4.198871 -8.025529 44.637769 4.252902 -4.639613 85.014818 0.000002 0.000002 -0.000001 0.000001 0.000008 -0.000001 -0.000000 0.000005 -0.000001 0.000001 0.000007 -0.000003 0.000001 0.000001 0.000001 0.000001 0.000002 0.000001 0.000001 0.000001 0.000001 0.000001 0.000001 0.000002 -0.000000 0.000001 -0.000000 -0.000000 0.000001 -0.000000 -0.000000 0.000001 -0.000000 -0.000000 0.000001 -0.000000 -0.000000 0.000001 -0.000000 -0.000000 0.000001 -0.000000 -0.000000 0.000001 -0.000000 0.000000 -0.000001 -0.000000 -0.000000 0.000000 -0.000000 
-20.039639 80.243660 0.426940 -6.750005 -42.092916 1.753226 -0.000000 -0.000001 -0.000000 -30.081386 1.430609 26.926308 51.315324 -11.557426 9.789482 -5.105757 -9.706372 -30.315928 0.000001 0.000002 -0.000000 -0.000002 -0.000001 0.000000 -28.006448 -5.139917 -40.287697 64.954771 -5.711458 -7.634635 -23.028104 -8.557363 29.347649 -0.000000 0.000001 -0.000000 -0.000000 0.000002 0.000002 9.515404 5.977087 -0.891911 2.720344 -1.070417 -2.460026 2.719148 -0.949812 -2.525622 3.424154 3.618711 -0.514678 3.424148 3.618711 -0.514672 0.000001 0.000001 -0.000001 3.424224 3.618700 -0.514680 3.424285 3.618667 -0.514680 0.000000 -0.000001 -0.000000 0.000001 0.000001 -0.000001 1.997482 2.325004 -12.601865 -64.622517 -0.436636 -43.747748 -0.000101 -108.319389 -0.000086 1.063109 -5.154257 -13.436473 -6.141213 -11.690805 -6.761688 9.914096 42.595529 3.409858 0.000001 -0.000003 -0.000001 0.255307 3.378217 -45.814337 5.654096 5.847758 -88.067476 -0.000001 -0.000001 0.000001 -0.461475 3.841581 -39.722676 6.450744 5.820334 -95.892864 -0.000002 -0.000001 -0.000000 0.469725 4.966805 -39.799451 8.181032 5.368605 -113.502998 0.000002 0.000001 0.000000 -3.762428 9.063713 -45.253821 5.342512 5.828976 -85.005311 0.000001 0.000000 -0.000002 0.000001 -0.000003 -0.000001 0.000001 -0.000003 -0.000001 0.000001 -0.000002 -0.000001 0.000001 0.000002 -0.000001 0.000001 0.000002 -0.000002 0.000001 0.000002 -0.000001 0.000001 0.000003 -0.000001 2.474451 10.139578 -12.169917 -65.449311 17.878884 85.928363 -0.002027 89.657400 0.002713 -18.193401 37.393445 21.742326 -7.341097 13.749657 7.412326 9.855743 -44.489096 -3.903273 0.000001 0.000004 0.000001 -0.124373 -2.384790 45.108861 4.500584 -4.654546 88.071137 -0.000000 0.000001 -0.000000 -0.761622 -2.932898 39.031048 5.133870 -4.632750 95.881635 0.000001 -0.000001 -0.000001 0.154762 -4.068802 39.122661 6.509735 -4.273581 113.462891 -0.000002 -0.000001 0.000000 -4.198871 -8.025529 44.637769 4.252904 -4.639610 85.014818 0.000001 -0.000002 0.000000 -0.000000 -0.000000 0.000001 0.000002 -0.000003 0.000000 -0.000000 -0.000000 0.000001 -0.000001 -0.000003 0.000003 -0.000001 -0.000003 0.000003 -0.000001 -0.000003 0.000003 -0.000001 -0.000003 0.000003 -0.000000 -0.000000 -0.000000 -0.000000 -0.000000 -0.000000 -0.000000 -0.000000 -0.000000 -0.000000 -0.000000 -0.000000 -0.000000 -0.000000 -0.000000 -0.000000 -0.000000 -0.000000 -0.000000 -0.000000 -0.000000 0.000000 -0.000000 -0.000000 -0.000000 -0.000001 -0.000000 
